<?xml version="1.0"?><svg width="640" height="480" xmlns="http://www.w3.org/2000/svg">
 <metadata id="metadata7">image/svg+xml</metadata>
 <g>
  <title>Layer 1</title>
  <g transform="matrix(1,0,0,1,0,0) matrix(1,0,0,1,0,0) rotate(90.16224670410156 319.002197265625,239.1094055175781) " id="layer1">
   <path fill="#000000" id="path2652" d="m299.237091,-76.088387l-0.257294,3.958054c-0.112305,2.177887 -0.343933,8.745472 -0.514557,14.614342l-0.257294,10.656269l-7.589539,-6.190784c-8.775177,-7.205528 -9.944489,-7.493195 -9.905029,-2.537209c0.01593,2.009468 3.593781,6.72831 7.911133,10.504044c6.914246,6.047016 7.885193,7.952606 8.297089,15.984434c0.310913,6.063877 -0.29245,8.772541 -1.736572,8.068331c-1.19458,-0.58238 -2.122528,-2.112896 -2.122528,-3.399849c0,-1.286934 -0.926239,-2.334238 -2.058167,-2.334238c-1.132141,0 -2.058228,-2.829237 -2.058228,-6.292295c0,-7.207108 -5.182037,-12.243729 -8.42572,-8.220558c-1.033844,1.282238 -1.461365,3.191643 -0.964752,4.262508c1.096527,2.365517 -4.826904,0.823544 -8.811646,-2.283489c-1.495911,-1.166328 -3.90683,-2.080505 -5.40274,-2.080505c-5.566711,0 -4.654938,4.580734 2.122498,10.707026c8.061188,7.28685 8.497192,8.74147 3.151581,9.844381c-2.626495,0.541893 -3.52771,1.802288 -2.829956,3.907314c1.158081,3.493925 6.680817,4.116873 10.419556,1.167109c2.802002,-2.210696 2.87323,-2.094512 3.344574,4.008805c0.393188,5.093756 0.036072,5.207947 -7.010712,2.029756c-6.899292,-3.111621 -8.232788,-3.033702 -8.232788,0.659677c0,1.721497 3.010193,4.984438 6.689148,7.256441c5.018951,3.099524 5.577087,3.920242 2.31546,3.247637c-2.839661,-0.585566 -4.780334,-0.001984 -5.595703,1.674555c-1.772034,3.643106 -3.205383,3.34177 -16.915787,-3.704326c-6.72879,-3.458094 -13.249207,-6.002106 -14.471634,-5.632623c-4.284714,1.295156 -1.564362,7.492128 4.437973,10.098116l6.045929,2.58795l-5.531372,0.507442c-3.017181,0.28422 -5.9702,1.526476 -6.560486,2.740194c-1.154709,2.373949 3.991272,4.700462 7.075027,3.196882c1.029846,-0.502136 1.92955,-0.133902 1.92955,0.811907c0,0.945807 1.620773,1.756275 3.601822,1.826797c2.615601,0.093075 2.798859,0.36145 0.707535,1.014885c-2.181946,0.681725 -1.752808,1.602024 1.865189,3.75507l4.823914,2.841682l-8.618652,1.167114c-8.867188,1.181911 -10.887177,3.791786 -5.595703,7.256432c1.993973,1.305601 4.0979,1.43643 6.431824,0.405945c3.881714,-1.713871 11.191406,-0.755642 11.191406,1.471586c0,0.78894 1.852417,1.471584 4.116394,1.471584c2.263977,0 4.116364,-0.730724 4.116364,-1.623817c0,-0.893116 2.083923,-1.602804 4.630951,-1.573072l4.63089,0.050739l-5.081146,3.298384c-3.94754,2.59201 -4.438843,3.601734 -2.251099,4.668465c3.089386,1.506424 8.42392,0.404961 11.062744,-2.283478c0.954712,-0.972725 1.203979,0.24707 0.514526,2.740185c-1.02832,3.718651 -0.566284,4.465485 2.894379,4.465485c2.285522,0 4.219879,-0.913387 4.309296,-2.029766c0.110809,-1.38517 0.507019,-1.299206 1.286377,0.253716c0.833527,1.661091 1.87326,1.208908 3.794769,-1.62381l2.637085,-3.90731l2.572754,4.4655c1.41452,2.449474 1.919373,4.980869 1.093384,5.632599c-0.826111,0.651733 -8.204468,1.449486 -16.401184,1.776062c-13.715179,0.546398 -15.703125,0.219566 -24.762604,-4.313267c-9.020554,-4.513332 -15.629395,-5.267925 -15.629395,-1.776047c0,0.769001 2.546982,2.560753 5.660004,3.958042l5.660065,2.537224l-7.203705,-1.065628c-7.125534,-1.028786 -19.113251,-5.900112 -24.376694,-9.945873c-1.495895,-1.149799 -4.506058,-2.080517 -6.689117,-2.080517c-4.19426,0 -5.281784,3.140095 -1.993881,5.734108c1.234879,0.974289 -1.928772,1.760101 -8.618637,2.080509c-5.825867,0.278984 -11.375229,0.875843 -12.284851,1.319347c-6.767639,3.299866 9.908829,9.292572 21.996918,7.9161l8.297089,-0.913391l-5.788681,2.587948c-3.504959,1.569263 -5.564041,3.669506 -5.145462,5.328136c1.001694,3.970024 9.89447,2.639687 15.565048,-2.334236c2.63884,-2.314613 6.20726,-3.830963 8.232773,-3.4506c2.840332,0.53336 2.472626,1.072937 -1.865204,2.486462c-7.008713,2.283855 -9.135376,4.95573 -4.888214,6.241539c1.834824,0.555485 2.874969,1.944912 2.315445,3.095402c-0.559647,1.15049 0.36731,2.501472 1.993866,2.993904c1.626572,0.492424 2.958649,0.253464 2.958649,-0.507439c0,-1.327415 6.650558,-3.602219 11.641663,-4.008797c1.312988,-0.106964 4.323029,-1.609024 6.689087,-3.29837c2.366028,-1.68935 4.309357,-2.526302 4.309357,-1.877548c0,1.685585 -4.497894,5.000481 -9.840729,7.256432c-2.523621,1.065575 -4.566605,2.662392 -4.566605,3.552094c0,3.062859 6.337112,3.538239 10.226608,0.761162c3.71344,-2.651344 3.838806,-2.628487 2.765747,0.60894c-1.570557,4.738068 2.642181,4.26664 6.817749,-0.761162c2.611786,-3.144936 3.892395,-3.638885 5.209778,-2.029778c1.430206,1.747108 2.015137,1.731743 3.473206,-0.050743c0.976074,-1.193344 3.523041,-1.99028 5.660034,-1.776047c8.304626,0.832558 19.22229,-5.023712 19.552795,-10.504059c0.178253,-2.956215 0.382751,-2.868 1.672272,0.659683c1.225067,3.351524 0.214417,4.977753 -5.852936,9.286186c-4.042175,2.870216 -13.061981,7.587791 -20.067413,10.504059l-12.735046,5.277405l-9.905045,-3.90731c-5.446594,-2.146156 -11.062775,-4.050323 -12.477768,-4.262527c-3.672836,-0.550697 -3.177246,2.585976 1.029114,6.495277c3.240906,3.012039 3.223969,3.094093 0.064301,1.167114c-1.931427,-1.177872 -4.294403,-1.74633 -5.274124,-1.268593c-0.979706,0.477715 -4.364105,-0.177658 -7.525253,-1.471596c-7.580917,-3.102951 -9.945755,-2.95047 -8.554352,0.507446c0.922318,2.292496 -0.045868,2.805992 -5.016846,2.689453c-3.389023,-0.079475 -6.642899,-0.572426 -7.26799,-1.065636c-2.505783,-1.976875 -9.133209,0.934181 -9.133209,4.008789c0,2.495819 1.00032,3.067696 4.309326,2.384979c4.131699,-0.85244 4.157822,-0.775215 0.707504,2.232742c-3.725815,3.2481 -3.11467,3.695435 4.695267,3.196899c3.590012,-0.229172 4.334549,0.318687 3.280212,2.486458c-1.112381,2.286957 -0.402496,2.672493 3.859116,2.02977c4.25946,-0.64241 4.989716,-0.258545 4.18071,2.181999c-1.099701,3.317741 0.20401,3.675369 5.33844,1.522346c5.046097,-2.116058 11.416779,4.604713 7.26796,7.662369c-2.32135,1.710869 -3.025452,1.643135 -3.923401,-0.203003c-0.615799,-1.2659 -4.262619,-2.31604 -8.297089,-2.435684c-3.957214,-0.117363 -6.724548,0.433868 -6.110245,1.217819c0.614166,0.784019 -0.693192,1.025642 -2.958664,0.558212c-5.197983,-1.072395 -5.358795,1.393791 -0.257294,3.907295c2.700409,1.330551 3.537674,3.118073 2.830032,6.038559c-1.244919,5.137955 -1.558456,5.180817 -9.133209,0.152252c-3.363281,-2.232758 -7.457809,-4.059555 -9.068909,-4.059555c-3.449722,0 -3.62532,0.797028 -0.964783,4.719208c2.159805,3.184021 0.804871,3.260681 -14.793243,0.913422c-5.083176,-0.764954 -7.718231,-0.552048 -7.718231,0.608902c0,2.102341 10.68718,6.748993 15.565079,6.748993c2.813553,0 2.978622,0.409393 0.900467,2.384979c-2.044876,1.943909 -1.972656,2.615646 0.450226,3.349106c1.65657,0.501572 3.87027,0.75914 4.888199,0.608932c4.299164,-0.634262 6.976791,0.286209 6.49617,2.182022c-0.315948,1.246185 1.670517,1.98381 5.145462,1.928284c4.355072,-0.069595 5.671707,0.67923 5.72435,3.247604c0.065704,3.206177 0.2285,3.174515 4.116379,-0.507431c3.213287,-3.043076 4.052078,-3.268753 4.052078,-1.116364c0,1.491302 0.92395,2.27832 2.058197,1.725311c1.134109,-0.552994 2.939163,0.887527 4.052032,3.196884c1.1129,2.309387 3.430511,4.605957 5.145508,5.125137c1.714981,0.519272 3.151596,1.952835 3.151596,3.19693c0,1.24408 1.488373,2.283463 3.344559,2.283463c1.856186,0 4.544006,1.239929 5.981598,2.790939c2.463837,2.658447 2.920349,2.635208 7.460968,-0.40596l4.823898,-3.196884l-3.666183,3.399872c-2.215454,2.075577 -9.079437,4.437851 -17.751892,6.089294c-18.125748,3.451599 -22.504044,3.343277 -29.908081,-0.507416c-6.857971,-3.566635 -10.204025,-2.905701 -8.361389,1.674576c1.034485,2.571686 0.247589,3.146118 -4.630951,3.146118c-3.245941,0 -6.839233,-0.727371 -7.975479,-1.62381c-1.382477,-1.090652 -3.382751,-0.876724 -6.045914,0.659653c-3.82132,2.204514 -3.728622,2.409058 2.637039,5.27742c4.798874,2.162399 6.318405,3.805038 5.467072,5.937073c-0.758636,1.899902 -0.167831,2.829819 1.607941,2.638702c5.959274,-0.641266 8.270325,0.161194 7.139359,2.486465c-1.974655,4.059723 5.539169,5.996048 11.255737,2.89241c3.749939,-2.035904 4.304306,-2.132553 2.444092,-0.304443c-3.475967,3.41597 -0.133896,6.986832 5.274109,5.632599c7.794235,-1.951691 9.89476,1.17041 2.251144,3.349121c-9.818497,2.79866 -19.612732,2.743668 -23.283279,-0.152237c-4.059967,-3.203156 -10.364044,-3.242477 -8.811615,-0.050751c0.960632,1.975082 -0.472961,2.23912 -8.039795,1.420853c-11.073227,-1.197403 -12.46022,1.502243 -2.25116,4.414764c4.95163,1.412643 6.703568,2.785904 6.045929,4.769928c-1.09906,3.315796 5.401352,5.158783 10.419586,2.943176c2.730026,-1.205399 3.408875,-0.735214 3.408875,2.486465c0,3.292145 0.753357,3.855591 4.437973,3.095398c3.640167,-0.751007 4.170288,-0.430588 3.022964,1.928299c-1.12468,2.312363 -0.549698,2.764496 2.765717,2.080475c2.280792,-0.470566 4.18071,-0.200531 4.18071,0.608948c0,2.845444 4.353531,1.419159 9.840729,-3.196884c6.609329,-5.56015 10.521957,-6.788712 15.372101,-4.820694c5.637527,2.287582 4.22818,4.136612 -2.572739,3.349091c-7.088333,-0.820755 -8.133148,1.652679 -3.022995,7.408676c2.988556,3.366333 2.975235,3.602829 -0.836121,3.602829c-2.247391,0 -5.505753,1.096085 -7.203674,2.43573c-1.698029,1.339676 -4.462463,2.43573 -6.174576,2.43573c-1.712097,0 -3.653824,0.685471 -4.309326,1.522339c-0.655624,0.836868 -4.79776,1.468735 -9.19754,1.420822c-4.39978,-0.047913 -9.199432,0.497437 -10.676865,1.217865c-1.47757,0.720474 -5.686905,1.157516 -9.326187,0.964142c-5.480255,-0.291168 -6.717377,0.287598 -7.267975,3.349136c-0.478378,2.659561 -2.086578,3.729874 -5.788651,3.856552c-2.830017,0.096863 -6.071701,0.379669 -7.20369,0.608948c-1.131989,0.229279 -3.678955,0.260437 -5.659988,0.101471c-1.981094,-0.158966 -3.601868,0.359711 -3.601868,1.116364c0,2.152679 11.390274,6.951935 16.529861,6.951935c4.501907,0 4.585205,0.091431 0.964767,3.24765c-3.635376,3.169205 -3.597305,3.247635 1.672272,3.247635c4.032837,0 5.095367,0.605713 4.18071,2.486481c-0.998459,2.052704 -0.130783,2.319611 4.695267,1.420837c3.256088,-0.606445 6.38031,-1.074371 6.946365,-1.065674c6.418777,0.099243 7.910919,0.655609 6.946411,2.638733c-2.149536,4.419342 3.181641,4.295471 6.238876,-0.152252c2.910309,-4.233978 3.074356,-4.289764 3.151611,-0.86264c0.045364,2.00946 0.823303,3.707916 1.672287,3.805786c12.576126,1.450348 14.639343,0.96936 17.173019,-3.856537l2.572723,-4.87146l1.800934,3.856567l1.800903,3.907318l3.987762,-4.05954c3.947556,-4.053864 3.941879,-4.058502 3.987732,-0.405975c0.061691,4.927185 3.730865,4.647308 5.33844,-0.405914c0.710281,-2.232788 2.204147,-4.059555 3.280228,-4.059555c1.076096,0 1.289017,0.78743 0.514542,1.776016c-0.983841,1.25592 0.609665,1.467987 5.274139,0.659698c4.952621,-0.858215 6.497025,-0.661652 5.852966,0.86264c-1.264648,2.993103 -14.155319,8.068329 -20.517578,8.068329c-3.009659,0 -5.889282,0.913391 -6.431854,2.029785c-0.606384,1.247681 -4.629272,1.957367 -10.483902,1.877533c-5.238556,-0.071381 -9.519119,0.438904 -9.519119,1.116364c0,3.125275 7.1436,6.506653 12.799362,6.038605c3.360886,-0.278168 6.26413,0.135345 6.431824,0.964111c0.547089,2.704498 -11.519669,4.225647 -40.842194,5.125183c-33.044617,1.013763 -46.309311,2.155548 -46.309311,3.907288c0,0.675476 -2.315475,0.883514 -5.145462,0.456726c-2.922867,-0.440826 -5.145493,-0.033295 -5.145493,0.964081c0,2.276184 6.724152,5.125183 12.156189,5.125183c2.338455,0 4.309357,0.730743 4.309357,1.62381c0,0.893127 -1.007492,1.62384 -2.186829,1.62384c-1.179352,0 -4.189499,1.508911 -6.689133,3.399872l-4.502289,3.450623l6.689102,-0.710419c4.424683,-0.47702 6.689148,-0.055969 6.689148,1.268585c0,1.203064 1.643372,1.677368 4.116364,1.167114c2.301407,-0.474792 4.116394,-0.049622 4.116394,0.964142c0,2.622498 5.235657,2.240173 8.232773,-0.608917c1.409195,-1.339661 3.461975,-2.43573 4.63092,-2.43573c1.168777,0 0.651474,1.309937 -1.222061,2.943207c-1.873535,1.63324 -3.408859,3.460022 -3.408859,4.059509c0,1.7211 7.849838,1.295044 9.261826,-0.507477c2.037613,-2.601044 4.763336,-1.884247 6.174591,1.623901c1.652695,4.108307 4.001434,4.082275 11.4487,-0.101501l5.981598,-3.349213l-1.286362,4.972992c-1.549927,6.113861 2.190216,6.607788 10.548203,1.420868c5.49057,-3.40741 5.644714,-3.404236 3.473206,-0.203003c-2.556885,3.769226 -1.326675,5.559875 2.958664,4.262512c1.601669,-0.484924 4.297897,0.014008 5.981598,1.116364c2.126541,1.392426 3.087311,1.469238 3.087311,0.203003c0,-1.002411 1.389252,-1.826813 3.087265,-1.826813c1.698044,0 3.087296,1.004791 3.087296,2.283539c0,1.576294 1.822418,2.169617 5.660034,1.826721c21.425064,-1.914093 -6.285507,7.915314 -31.194473,11.062286c-16.284622,2.057281 -17.918579,1.978821 -23.283264,-0.81192c-3.170578,-1.649384 -6.88208,-2.988037 -8.297089,-2.993927c-4.257217,-0.01767 -2.898224,3.233337 2.058197,4.922211c3.400208,1.1586 2.169601,1.282593 -4.63092,0.456726c-5.094101,-0.618652 -11.577332,-1.024811 -14.407333,-0.913422c-2.830017,0.111389 -9.738373,-0.851776 -15.307816,-2.131226c-5.569565,-1.279541 -10.436424,-2.11795 -10.805496,-1.826813c-2.147537,1.694183 11.029221,8.390167 18.395081,9.336945l8.747284,1.116333l-7.718185,0.202972c-5.374115,0.141541 -7.718216,0.942841 -7.718216,2.638702c0,1.339691 1.620758,2.553436 3.601837,2.689484c1.980942,0.136017 4.528015,0.401428 5.660004,0.608917c1.131989,0.207489 3.385406,0.4552 5.016846,0.558197c2.182816,0.137787 1.908707,0.791656 -1.029099,2.486481c-5.086166,2.934143 -2.670715,5.042755 3.022964,2.638641c3.542557,-1.495789 4.309357,-1.341125 4.309357,0.862671c0,2.08255 1.472656,2.507019 6.689117,1.928314c3.678955,-0.408173 8.541534,-1.272797 10.805496,-1.928314c4.057587,-1.174896 4.002335,-1.161499 0.064316,1.370117c-4.010727,2.578217 -3.151215,3.175446 3.537521,2.638733c2.050156,-0.164612 3.601822,0.838928 3.601822,2.283447c0,3.473297 1.666519,3.186432 6.560501,-1.116364l4.180679,-3.653534l-3.344559,4.414703c-1.821014,2.424561 -3.280228,5.147339 -3.280228,6.089325c0,2.510162 10.097,0.656891 14.921875,-2.740234c4.043533,-2.846985 4.074173,-2.794189 2.508408,1.167175c-2.175751,5.504486 -4.702515,6.667511 -23.669174,11.163696c-15.754639,3.734741 -16.705215,3.781281 -25.21283,1.217865c-9.273682,-2.794189 -22.061234,-3.590698 -22.061234,-1.370087c0,0.714478 1.076828,2.219635 2.444092,3.29837c1.671387,1.318695 -1.080215,1.112152 -8.42569,-0.608917c-6.008781,-1.407867 -12.331718,-2.154907 -14.085777,-1.62384c-2.689934,0.814362 -2.446609,1.621857 1.543648,4.972931l4.695251,3.958099l-6.946388,-1.57309c-8.954079,-2.026062 -19.832825,-2.02356 -21.41806,0c-1.636093,2.088501 12.128433,6.535767 20.260307,6.54599l6.496178,0l-6.045944,3.805817c-5.967911,3.767456 -5.910759,8.710144 0.064323,6.901184c1.987465,-0.601715 2.894333,0.378906 2.894333,3.146149c0,2.876587 1.074936,4.008789 3.923424,4.008789c2.183197,0 5.404266,1.117645 7.139366,2.486481c2.618958,2.066193 3.848541,2.122375 7.332306,0.405975c2.30777,-1.137146 4.24501,-2.620117 4.24501,-3.298401c0,-0.678253 1.622284,0.060944 3.666153,1.62381c3.94101,3.013641 5.064072,6.901215 1.993866,6.901215c-1.010117,0 -1.160385,0.787476 -0.38591,1.776031c0.978851,1.249725 -0.545074,1.485321 -5.01683,0.710419c-4.104065,-0.711151 -6.431839,-0.509521 -6.431839,0.608978c0,0.994843 -4.004959,1.776031 -9.261879,1.776031c-9.645142,0 -11.465645,1.407043 -6.174561,4.871429c2.061188,1.34964 6.415642,1.707733 12.863686,1.065643l9.776382,-0.964142l-7.653854,3.196899c-5.315201,2.223267 -7.283081,3.983917 -6.431885,5.7341c0.76545,1.573608 2.482063,2.101501 4.566635,1.420776c1.834976,-0.599182 4.73381,-1.254517 6.431839,-1.471558c1.698029,-0.21701 1.929565,-0.079315 0.514542,0.304504c-5.213303,1.414154 -2.520844,4.021667 3.08728,2.993896c4.050583,-0.74231 4.80368,-0.575958 2.637085,0.558228c-5.445099,2.85022 -0.609299,3.677551 5.917282,1.014893c3.501221,-1.428497 6.367538,-1.907257 6.367538,-1.065643c0,0.841553 -1.157745,1.884766 -2.572723,2.283447c-1.415024,0.398743 -1.856964,1.328735 -0.964813,2.080536c0.892181,0.75174 4.257965,0.566956 7.525269,-0.405945c4.866211,-1.449158 5.791306,-1.349457 4.888214,0.507446c-0.794693,1.633911 -0.060181,1.937866 2.70137,1.167084c3.211639,-0.896423 3.416534,-0.684143 1.157715,1.217865c-2.105408,1.772797 -9.192261,2.197784 -32.416489,1.928284c-17.97049,-0.208496 -29.715126,0.273041 -29.715126,1.217834c0,0.859528 1.437119,1.573151 3.215927,1.573151c1.778801,0 4.522255,1.030518 6.110229,2.283478c2.477661,1.954773 2.426651,2.415527 -0.321587,3.247589c-1.761467,0.533264 -6.125694,0.95047 -9.712074,0.964172c-7.561813,0.028809 -12.752014,2.144897 -10.934135,4.465485c2.245613,2.866699 12.459816,3.387848 20.903481,1.065643c11.25724,-3.0961 11.866898,-2.917969 6.045929,1.67453c-7.258286,5.726379 -6.729439,9.178711 1.093422,7.408661c3.359154,-0.760071 7.063866,-1.865814 8.232773,-2.43576c1.168777,-0.569885 2.207306,0.312653 2.379776,1.928314c0.172363,1.615631 0.453751,3.767303 0.578857,4.820679c0.125015,1.053375 0.85173,2.44812 1.607986,3.044708c1.622269,1.279907 14.021423,-4.195984 14.021423,-6.190826c0,-0.753265 0.840775,-0.936859 1.929535,-0.405975c1.267288,0.61792 1.267288,2.444733 0,5.074432c-1.08876,2.259308 -1.929535,4.838318 -1.929535,5.73407c0,2.146301 9.726273,-3.40979 19.488495,-11.112946c7.282059,-5.746185 8.323212,-4.764069 1.54364,1.471588c-1.663132,1.529663 -2.405167,4.024475 -1.672256,5.531097c1.183731,2.433746 1.862442,2.294952 6.560455,-1.167084l5.338425,-3.856537l-0.707489,4.059509c-0.652603,3.727509 -2.054153,4.217072 -17.17305,6.190796c-10.624588,1.386963 -17.581406,1.600739 -19.617096,0.608917c-5.159317,-2.513672 -16.40123,-4.006042 -16.40123,-2.181976c0,0.901917 1.620773,1.985474 3.601837,2.384949c1.980927,0.399414 -1.029106,0.392365 -6.689125,0c-8.274475,-0.573608 -9.786835,-0.327972 -7.718231,1.319366c3.935371,3.133789 3.053268,4.299133 -2.572723,3.450592c-6.652443,-1.003326 -15.990402,0.871552 -14.407326,2.892456c0.679115,0.866913 3.342796,1.572998 5.917305,1.572998c8.797798,0 7.561813,2.234924 -3.151611,5.63269c-18.261162,5.791382 -14.276558,10.098633 4.502289,4.871399c9.504936,-2.645752 13.22197,-2.187317 6.238884,0.761169c-2.360939,0.996887 -4.24501,2.958984 -4.24501,4.364014c0,1.958557 1.246544,2.307312 5.467056,1.471558c4.857307,-0.961853 5.221977,-0.802429 2.830017,1.471619c-5.546074,5.272278 0.335411,5.284302 9.519119,0c4.28701,-2.466797 4.460114,-2.443848 3.280251,1.167053c-1.106583,3.386414 -0.884003,3.55127 2.251167,1.522339c3.095184,-2.003113 3.304352,-1.911072 2.058182,0.811951c-1.230331,2.687866 -0.744308,2.601379 3.730469,-0.608948c5.243103,-3.761658 8.46756,-3.444275 6.496155,0.608948c-1.572388,3.232666 3.36116,2.802429 11.191452,-0.964111c3.72757,-1.793152 6.689102,-2.410583 6.689102,-1.420837c0,1.09967 2.154907,1.386719 5.660019,0.761108c3.829819,-0.683594 4.661697,-0.538086 2.572739,0.456726c-1.698029,0.808594 -8.18129,2.284729 -14.407333,3.29834c-13.404144,2.182129 -17.566727,3.959473 -15.500763,6.596802c1.418915,1.81134 4.186249,1.614624 16.529846,-1.014893c3.15274,-0.671631 2.550629,0.359436 -2.572723,4.262512c-3.679092,2.802673 -6.689117,5.435364 -6.689117,5.886353c0,1.613403 11.443527,-0.390869 18.00914,-3.146179c7.214493,-3.02771 8.324738,-2.101135 3.537537,2.892395c-4.180206,4.360291 -3.778595,6.282532 1.093414,5.277405c2.675369,-0.552002 4.116364,-0.012756 4.116364,1.47168c0,3.037231 1.884338,2.872314 6.689133,-0.558289c3.798935,-2.712402 3.970032,-2.694946 3.280243,0.406006c-1.102219,4.95459 10.317093,3.460754 16.401199,-2.131348l4.759598,-4.363953l-1.350708,5.277405c-1.787476,6.984009 3.37912,7.167114 11.384369,0.405945c3.172302,-2.67926 6.036896,-4.87207 6.431839,-4.871399c0.394821,0.000549 0.858749,1.889893 1.029099,4.21167c0.468323,6.385132 3.821548,8.107239 8.104126,4.161072c3.381119,-3.11554 3.865646,-3.17572 6.367538,-0.608887c2.476868,2.541138 2.756882,2.502502 3.923416,-0.761169c0.754471,-2.110962 2.384048,-3.194519 4.052048,-2.689514c1.774902,0.537415 3.300613,-0.734924 4.180695,-3.501282c0.953644,-2.997864 1.911606,-3.752808 3.02298,-2.334229c0.889145,1.135071 3.543335,2.302124 5.917282,2.587891c3.352234,0.403687 5.319977,-1.079041 8.811676,-6.748962c4.509216,-7.322632 9.266876,-10.1474 6.817749,-4.059509c-1.582214,3.932922 -0.391937,4.036743 6.238861,0.608948c2.790192,-1.442444 5.142731,-4.182617 5.274109,-6.089294c0.190979,-2.773987 0.464966,-2.898621 1.222076,-0.609009c1.563751,4.729675 4.756805,1.446289 4.823883,-4.9729c0.050629,-4.859314 0.421539,-5.450073 2.122528,-3.146118c1.153687,1.562866 4.026703,2.841675 6.367523,2.841675c4.055298,0 4.21347,0.592834 2.894318,12.584534c-0.921783,8.379395 -3.08139,15.214417 -6.431824,20.449951c-1.961853,3.065491 -3.609131,5.795166 -4.437988,7.30719l51.19751,0c2.269836,-1.433716 1.248322,-3.950867 -1.093445,-8.372803c-3.649811,-6.891785 -5.057434,-20.963623 -2.186798,-21.718567c1.121643,-0.294983 3.647522,1.625427 5.660034,4.313293c3.751831,5.010864 8.364899,6.857544 6.238861,2.48645c-2.43103,-4.998047 1.397522,-2.261353 4.180664,2.993958c2.221313,4.194214 4.000061,5.44635 7.718262,5.226624c2.666962,-0.157715 6.183472,0.475952 7.782532,1.420837c2.084442,1.23175 3.140442,1.179626 3.730408,-0.203003c0.546661,-1.280579 2.175598,-0.871521 4.823914,1.217957c5.297791,4.179626 7.935364,3.978821 6.689117,-0.507568c-0.59314,-2.135071 -0.29895,-2.94635 0.70752,-1.928223c2.37262,2.400269 8.940277,4.146973 8.940277,2.38501c0,-1.639282 11.360748,-1.058777 17.301666,0.86261c3.12677,1.011169 3.704987,0.693298 2.701355,-1.370056c-0.698944,-1.437073 -0.193817,-2.905823 1.157806,-3.298401c1.876617,-0.545288 1.900604,-1.249084 -0.064331,-2.892456c-4.672058,-3.907166 -2.736206,-4.411865 4.952454,-1.319397c8.499359,3.418762 10.870605,2.916992 6.753479,-1.370056c-2.202698,-2.293518 -2.233185,-2.479004 -0.064301,-0.964111c1.49826,1.046509 3.971283,1.537964 5.531342,1.065613c1.559967,-0.47229 2.894348,-0.208984 2.894348,0.608948c0,0.817932 1.254456,2.867065 2.830017,4.567017c2.468048,2.662964 3.372711,2.781433 6.303192,0.86261c2.954254,-1.934387 3.785034,-1.698059 6.689117,1.573059l3.344604,3.755127l1.865204,-3.907349c1.718872,-3.630676 2.036469,-3.702026 4.502289,-1.065674c3.257935,3.483459 4.713989,3.537415 8.747314,0.355225c2.50882,-1.97937 2.649353,-2.964233 0.643219,-4.871399c-1.383118,-1.314758 -1.902191,-2.38501 -1.157806,-2.38501c0.744446,0 0.284851,-1.644104 -1.029083,-3.653564c-1.99939,-3.058044 -1.24826,-2.8797 4.56665,1.268616c12.808502,9.137512 13.653107,9.475281 17.301666,6.59668c1.817261,-1.433777 2.576538,-3.484802 1.736572,-4.617737c-0.860016,-1.159851 0.197388,-0.966492 2.444122,0.456787c10.879639,6.891968 21.895813,8.248291 14.471619,1.776062c-3.351776,-2.922119 -3.23996,-3.150024 2.122559,-4.211792l5.595642,-1.116394l-6.045868,-3.856567c-7.905792,-5.098511 -3.678497,-5.111084 7.653839,0c4.926575,2.221985 10.162354,4.048767 11.577332,4.05957c4.154114,0.031555 2.955139,-2.557922 -2.058167,-4.465515c-4.16803,-1.585938 -3.852661,-1.778687 3.666138,-1.877502c4.594604,-0.060547 10.151672,-1.175232 12.349121,-2.486511c3.801147,-2.26825 3.752075,-2.384521 -2.122437,-2.43573c-8.815247,-0.076904 -40.166656,-4.580078 -46.695251,-6.698181c-7.99884,-2.595215 -9.514709,-6.566406 -1.607941,-4.211792c6.937073,2.065857 10.445435,0.358276 5.33844,-2.587952c-2.964294,-1.710083 -2.008972,-1.914185 5.852966,-1.420837c10.036102,0.6297 12.174408,-1.366211 4.695282,-4.364014c-4.006866,-1.606018 -3.327423,-1.809143 5.40271,-1.471558c11.779968,0.455505 15.100281,-2.599518 4.952515,-4.567017l-6.753357,-1.319336l6.689026,-0.608948c7.833069,-0.737518 8.524231,-2.408203 2.058167,-5.023651c-3.782898,-1.530212 -2.181091,-1.738251 8.747375,-1.014923c12.317993,0.815338 13.004639,0.685516 9.326172,-1.623779c-2.197327,-1.379486 -5.608826,-2.48645 -7.5896,-2.48645c-1.980896,0 -4.192505,-0.805969 -4.952515,-1.776062c-0.865784,-1.105316 0.426636,-1.671997 3.473206,-1.471588c8.59967,0.565704 14.150085,0.029968 14.150085,-1.420837c0,-0.77771 -6.524658,-1.919373 -14.47168,-2.537231c-7.947083,-0.617798 -14.007813,-1.714081 -13.442505,-2.43576c0.565125,-0.721619 6.496399,-2.279846 13.185242,-3.450531c12.616699,-2.208374 20.603394,-5.514038 18.073486,-7.510162c-1.292847,-1.020081 -12.74585,0.452271 -28.042847,3.653534c-4.700439,0.983704 -4.580811,0.678284 1.865234,-3.704315c10.606873,-7.211578 4.620483,-7.953247 -10.67688,-1.319336c-15.359924,6.66095 -24.154572,7.204865 -41.163818,2.587921c-19.300842,-5.238983 -50.604034,-17.776123 -52.934113,-21.211029c-2.885376,-4.25354 -1.245514,-4.12735 3.987732,0.304413c2.308075,1.954651 4.245026,2.957062 4.245026,2.232758c0,-0.724365 1.389282,-0.401398 3.087311,0.710419c2.550781,1.670258 3.087311,1.514374 3.087311,-0.913361c0,-2.446411 1.053467,-2.143982 6.431854,1.826782l6.431824,4.769928l-1.222015,-5.226624c-1.232483,-5.153107 -1.14975,-5.204651 4.373596,-3.349121c3.076508,1.033508 6.985016,2.723907 8.683014,3.755066c7.980621,4.846283 8.906738,4.739044 7.460968,-0.964172c-1.092316,-4.30835 -0.87912,-5.057434 1.093414,-3.501312c3.581421,2.825684 12.027527,2.505554 12.027527,-0.456726c0,-3.025909 3.323578,-3.178009 5.531372,-0.253662c0.905243,1.198975 4.219269,3.440643 7.332336,5.023651c4.66864,2.373962 5.660034,2.463013 5.660034,0.507446c0,-1.303955 -1.852448,-3.660919 -4.116364,-5.277435c-2.26416,-1.616455 -4.116425,-3.714203 -4.116425,-4.617706c0,-0.903564 0.52121,-1.161774 1.222015,-0.608917c0.700745,0.552856 2.736206,-0.129059 4.502319,-1.522308c2.227905,-1.757782 5.572998,-2.292664 10.934113,-1.725342c5.333069,0.564362 8.080566,0.132996 8.811676,-1.370087c0.806824,-1.658966 2.67926,-1.828918 7.846863,-0.659698c18.152405,4.107361 21.49353,-0.574707 3.987732,-5.581848c-11.834595,-3.38504 -13.331573,-5.095123 -2.25116,-2.587921c14.081848,3.186279 32.399231,0.774109 24.633972,-3.247681c-1.697998,-0.879425 -7.255188,-1.707458 -12.349121,-1.826782c-7.864502,-0.184204 -8.379028,-0.346924 -3.280273,-1.217865c3.302612,-0.564178 6.418213,-2.046051 6.94635,-3.29837c0.802307,-1.902374 -2.445557,-2.117645 -19.938721,-1.167084c-20.597809,1.119202 -20.927826,1.119171 -18.39505,-2.080536c3.769592,-4.762238 1.179596,-5.586914 -9.068878,-2.841675c-5.540924,1.484161 -12.652618,2.107452 -18.202148,1.573059c-11.898132,-1.145691 -51.266724,-11.553528 -55.8927,-14.766541c-4.835266,-3.358307 -4.562866,-5.686127 0.514496,-4.414734c2.308228,0.577911 4.116364,0.283539 4.116364,-0.659729c0,-1.761017 3.082916,-1.254669 13.378265,2.283539c3.395966,1.167053 10.850128,2.157318 16.594208,2.181976c5.743927,0.024567 11.300903,0.197083 12.349091,0.355164c4.81778,0.726837 5.3255,-0.382965 1.736633,-3.755035c-2.580658,-2.424561 -1.771271,-2.151489 2.379761,0.81192c7.119141,5.082397 9.13324,5.505646 9.13324,1.979034c0,-2.143463 0.662415,-2.130249 5.274109,0.253662c3.105621,1.605469 5.890656,2.109985 6.689117,1.217896c0.75235,-0.840637 4.140503,-2.476898 7.525269,-3.653595c5.908295,-2.053986 6.002716,-2.213318 2.186829,-4.414703c-4.659821,-2.688263 -3.474182,-2.910126 3.859131,-0.710419c3.985229,1.195374 5.338409,1.082397 5.338409,-0.507477c0,-1.283752 5.22403,-2.970764 13.378204,-4.313263c7.35791,-1.211395 13.378296,-2.866943 13.378296,-3.653564c0,-0.786652 0.870789,-0.953583 1.993835,-0.406006c1.122925,0.547638 3.685974,0.262634 5.660034,-0.608917c3.137695,-1.385345 2.855225,-1.754486 -2.122498,-2.740173c-4.29248,-0.850037 -5.392944,-1.845428 -4.502319,-4.059509c0.873962,-2.172699 -0.045471,-3.044739 -3.537537,-3.450623c-3.332886,-0.38739 -0.965637,-1.527344 8.104187,-3.805786c14.055115,-3.530914 17.528015,-6.726593 5.209778,-4.82077c-11.374023,1.759796 -39.620178,2.160095 -39.620178,0.558228c0,-0.760406 0.926208,-1.370087 2.058197,-1.370087c1.131989,0 2.058167,-0.738464 2.058167,-1.62381c0,-0.885376 -4.399384,-1.558014 -9.776428,-1.471619c-13.504669,0.217041 -35.093842,-3.344513 -36.404236,-6.038544c-0.737396,-1.515961 0.593201,-2.232727 4.052063,-2.232727c2.794495,0 5.081177,-0.708069 5.081177,-1.57309c0,-0.865112 1.389221,-1.173767 3.087311,-0.659668c1.697906,0.514038 3.08728,0.075165 3.08728,-0.964142c0,-1.245575 1.551453,-1.006531 4.566559,0.659668c2.5159,1.390289 6.915161,2.516174 9.776428,2.48645l5.209839,-0.05072l-4.759583,-3.146179l-4.695282,-3.095367l9.840759,-0.507446l9.905029,-0.558167l-7.203674,-2.740204l-7.203644,-2.740204l6.303192,-0.05069c4.016754,-0.040375 8.124084,-1.534393 11.191467,-4.110352c2.658569,-2.232727 5.782227,-4.05954 7.010681,-4.05954c1.228333,0 3.458252,-1.491913 4.888245,-3.29834c3.762939,-4.753998 -1.030151,-5.70694 -12.86377,-2.537262c-12.761536,3.418274 -15.406158,3.323761 -14.085724,-0.659637c1.300232,-3.922638 0.961517,-3.944183 -11.963257,-0.608948c-9.832031,2.537201 -10.854584,2.463257 -26.563477,-1.065613c-21.18515,-4.759094 -26.615448,-9.216949 -10.290955,-8.474304c1.681458,0.076508 3.705811,-0.657928 4.502258,-1.674561c1.012909,-1.293182 2.717926,-0.989044 5.595734,1.065582c3.225372,2.302979 5.921417,2.700714 12.477814,1.826843c9.353394,-1.246765 9.932587,-1.863892 4.759552,-5.226654c-3.701141,-2.405853 -2.334961,-2.330536 6.496094,0.456696c3.16217,0.998077 3.692688,0.698975 2.637146,-1.471619c-0.974365,-2.003021 -0.190155,-2.689453 2.958588,-2.689453c2.866211,0 3.912262,-0.770325 3.151611,-2.334229c-0.623566,-1.281891 -0.065216,-2.697968 1.286377,-3.146118c1.725037,-0.572052 1.490509,-1.50174 -0.900482,-3.044647c-3.124969,-2.016479 -2.997803,-2.488647 1.543671,-5.937073c7.414276,-5.630035 6.037262,-6.807709 -4.823914,-4.05954c-27.01059,6.834564 -36.914032,7.242065 -43.543549,1.67453c-3.757111,-3.155121 -3.976746,-4.013885 -1.47937,-4.769928c1.676788,-0.50769 5.826508,-0.10965 9.261841,0.913391c8.796844,2.619659 10.677124,0.00824 3.344604,-4.668488c-5.141724,-3.279327 -5.486053,-3.887909 -2.058197,-3.653564c7.19928,0.492218 11.320068,-0.153595 11.320068,-1.826813c0,-0.893066 -1.620941,-1.668671 -3.601837,-1.725281c-2.91684,-0.083344 -2.810913,-0.400726 0.707458,-1.522339c2.389465,-0.761719 4.897797,-2.52298 5.595734,-3.958069c1.098694,-2.258972 0.688995,-2.361526 -3.280243,-0.608887c-7.179047,3.169922 -50.073059,2.685974 -59.108734,-0.659698c-6.316193,-2.33876 -6.650757,-2.674728 -2.37973,-2.790909c3.898926,-0.106049 4.696106,-0.782166 3.794769,-3.501373c-1.010071,-3.047119 -0.787018,-3.163116 2.315491,-1.065613c4.509827,3.049103 10.67688,4.751617 10.67688,2.943176c0,-0.781464 1.852295,-1.076019 4.116394,-0.608917c2.301392,0.474823 4.116364,0.049591 4.116364,-0.964142c0,-0.997284 2.31546,-1.776093 5.145477,-1.776093c6.841156,0 6.502045,-1.615082 -1.415039,-6.748962l-6.624786,-4.262497l10.998474,1.370102c11.34314,1.414673 15.471619,0.826172 13.313934,-1.928329c-2.108185,-2.691101 3.422089,-6.292267 9.647736,-6.292267c7.013,0 7.982147,-2.681351 1.350708,-3.805801c-2.630646,-0.44603 -1.519287,-0.730896 2.572754,-0.608948c4.6828,0.139587 7.023621,-0.439392 6.689117,-1.725296c-0.283051,-1.087952 0.465942,-1.979034 1.736572,-1.979034c1.553955,0 1.475708,-0.828583 -0.321533,-2.537201c-1.704102,-1.619904 -4.59671,-2.268555 -7.975586,-1.725311c-2.914001,0.468552 -4.116364,0.485565 -2.701324,0c4.75116,-1.630264 2.647247,-4.23056 -2.572754,-3.196869c-4.173889,0.826492 -4.816071,0.506622 -3.730469,-1.725327c0.970795,-1.996109 0.547974,-2.358612 -1.479279,-1.370102c-1.520721,0.741516 -5.123169,1.483994 -8.039825,1.674576c-2.916809,0.190552 -7.5896,0.8526 -10.419617,1.471603l-5.145477,1.116348l5.660065,-3.805832c6.540253,-4.428543 7.48941,-7.023193 1.672241,-4.566956c-5.739929,2.423553 -9.953522,2.22023 -6.753418,-0.304489c4.619446,-3.644608 2.796967,-6.518753 -1.929596,-3.044647c-2.416931,1.776474 -7.268311,4.308456 -10.805511,5.632614c-12.574463,4.707687 -46.502228,-1.701797 -46.502228,-8.778748c0,-1.414978 -1.150055,-3.444519 -2.508423,-4.51622c-1.652405,-1.303635 -1.698029,-1.928284 -0.192932,-1.928284c1.237244,0 2.7565,1.094467 3.408875,2.435699c0.752319,1.546844 3.692535,2.3564 7.975525,2.232742c3.713745,-0.107178 8.837341,0.358643 11.384277,1.014893c3.804413,0.980301 4.630981,0.545776 4.630981,-2.232727l0,-3.349106l7.010773,3.247635c5.039551,2.345901 7.432281,2.771011 8.48999,1.420822c0.810638,-1.034805 0.20929,-2.571777 -1.350677,-3.399902c-2.44397,-1.297226 9.570496,-1.124176 17.751923,0.253738c1.131927,0.190689 4.161072,-0.205978 6.753418,-0.86264c4.348236,-1.101456 4.427002,-1.433563 1.414978,-4.059525c-3.02121,-2.633865 -2.855927,-2.896286 1.993866,-3.856583c5.946228,-1.177429 7.131592,-4.216919 1.672302,-4.313263c-2.269379,-0.040024 -1.317566,-0.874588 2.572723,-2.283493c3.395935,-1.229889 8.897339,-4.013748 12.22052,-6.190781l5.981628,-3.958054l-7.525299,-1.116394c-4.172119,-0.617493 -7.589539,-1.819778 -7.589539,-2.689423c0,-0.911972 -2.395508,-1.148941 -5.660034,-0.507462c-4.940857,0.970901 -5.379028,0.825745 -3.087341,-1.370071c3.973969,-3.807785 -1.945984,-4.969818 -8.039795,-1.57309c-2.852112,1.589783 -9.041718,2.772079 -14.986206,2.84169c-8.107361,0.094986 -9.262573,-0.225937 -5.724335,-1.471603c4.001984,-1.408875 4.397736,-2.732513 2.637085,-8.930954c-0.084198,-0.296143 -3.262421,0.982605 -7.075043,2.84166c-3.812592,1.85907 -10.064423,3.35878 -13.892761,3.349121c-12.832306,-0.03241 -34.919342,-6.777832 -48.946381,-14.969543c-5.40097,-3.154099 -4.256805,-3.806366 1.993896,-1.16713c3.240265,1.368195 4.001068,1.141632 4.052032,-1.21788c0.059692,-2.767822 0.160553,-2.796616 2.186829,-0.05072c1.167206,1.581711 2.957306,2.481491 3.987732,1.979019c1.030487,-0.502441 4.212982,0.296585 7.075012,1.776031c5.147552,2.66098 5.178711,2.623108 5.209839,-1.979004c0.017334,-2.558746 0.711914,-3.824371 1.543671,-2.84169c1.801239,2.128387 9.576904,5.531128 12.670715,5.531128c1.206329,0 2.331299,-1.644089 2.444092,-3.65358c0.194702,-3.468048 0.249359,-3.447433 1.607971,0.40596c0.78714,2.232742 1.864746,3.723328 2.379791,3.349136c0.514923,-0.374207 2.86377,0.125824 5.209808,1.116348c3.477692,1.46846 4.79306,1.229172 7.075012,-1.2686c1.539246,-1.684875 3.595398,-2.655563 4.56662,-2.182007c0.971191,0.473572 1.125061,-1.025284 0.385956,-3.349136c-1.286682,-4.044159 -1.111572,-4.163254 4.309296,-2.537186c6.691254,2.007111 8.77179,1.011612 5.145477,-2.43573c-2.166595,-2.05954 -1.950775,-2.435715 1.093384,-2.435715c3.464172,0 3.416809,-0.172714 0.064301,-3.095413c-1.947235,-1.697525 -2.662384,-3.494614 -1.607971,-4.008804c1.054352,-0.51413 3.533539,0.491119 5.531403,2.232773c3.136841,2.734589 5.152374,2.979645 13.121002,1.725311c0.4216,-0.066391 -0.218628,-1.084946 -1.47934,-2.283508c-2.678406,-2.546112 -1.09201,-4.313263 3.923431,-4.313263c1.949921,0 5.753296,-1.440399 8.42572,-3.196884l4.888184,-3.196838l-6.174561,-0.304504c-3.396057,-0.16861 -8.444153,-0.146713 -11.191406,0.050751c-4.348053,0.312515 -4.679321,0.014313 -2.31546,-2.232758c4.500549,-4.278351 1.33194,-4.265717 -6.624817,0c-8.627991,4.625488 -13.824066,5.431335 -9.712097,1.522339c2.175018,-2.067688 2.05307,-2.326797 -0.77179,-1.471588c-3.927338,1.188995 -4.499786,-1.016922 -0.964783,-3.805832c5.271606,-4.159081 -0.320068,-3.535011 -6.817749,0.761169c-12.792847,8.458359 -14.363617,8.726944 -28.814667,5.27739c-15.151031,-3.616531 -25.310822,-8.133698 -28.364471,-12.635315c-1.869141,-2.755302 -1.443146,-3.14534 3.02298,-2.943169c2.817474,0.127586 5.557037,1.367355 6.11026,2.740204c0.553223,1.372864 2.958252,2.59877 5.33847,2.740189c3.472778,0.206406 4.081909,-0.440765 3.15155,-3.247643c-1.032013,-3.113174 -0.597321,-3.001137 3.666199,0.913414c2.634369,2.418808 6.833679,4.414742 9.390442,4.414742c4.03537,0 4.512878,-0.61792 3.473206,-4.719223c-1.557922,-6.145752 3.272491,-7.842621 8.297058,-2.89241c3.43277,3.381958 15.009369,5.757332 15.050507,3.095398c0.010223,-0.659813 -2.999969,-3.149857 -6.689117,-5.581856c-5.115509,-3.372223 -5.819153,-4.432167 -3.022919,-4.465492c2.01651,-0.024025 4.174774,0.999725 4.823914,2.334236c0.649078,1.334518 1.959076,2.079811 2.894287,1.623802c0.93512,-0.455963 2.24765,-0.095741 2.95871,0.81189c0.710968,0.907684 3.773621,1.674568 6.753387,1.674568c5.185822,0 5.239349,-0.118698 1.415039,-2.334213c-3.853485,-2.232277 -3.787567,-2.376343 1.800903,-4.059555c3.186646,-0.959785 6.891357,-1.7444 8.232727,-1.776047c1.341278,-0.031624 0.128632,-1.096214 -2.701385,-2.334221c-5.017059,-2.19474 -4.964813,-2.242844 2.830017,-1.674568c5.049652,0.368149 9.075439,-0.258965 10.934143,-1.725288c4.524384,-3.569626 1.317017,-5.581871 -8.875946,-5.581871c-5.693787,0 -8.763123,-0.669281 -7.975464,-1.674568c2.592804,-3.309967 -5.005798,-3.366508 -13.571198,-0.101494c-10.49762,4.001488 -12.445892,4.204422 -10.869843,0.964149c0.74408,-1.529968 -0.02121,-2.43573 -2.058167,-2.43573c-2.036987,0 -2.802368,-0.905762 -2.058228,-2.435715c1.385498,-2.848587 0.670074,-2.947235 -6.110199,-0.913399c-4.41037,1.322906 -4.896271,1.117004 -3.987762,-1.623825c1.081329,-3.262611 -2.373596,-4.403877 -4.630951,-1.522316c-0.709625,0.905869 -5.068054,3.205208 -9.712067,5.074425c-7.465118,3.004623 -9.394165,3.153175 -16.722839,1.42083c-6.833221,-1.615227 -7.704773,-2.229408 -4.823853,-3.501343c1.922028,-0.848648 3.537506,-2.646065 3.537506,-4.008804c0,-1.922142 -2.109436,-2.379906 -9.326141,-2.029762c-7.020935,0.34063 -10.250916,-0.347481 -13.249634,-2.740189c-4.516724,-3.603889 -8.884247,-16.478035 -6.045959,-17.861961c1.754974,-0.855751 2.737549,2.60408 1.993927,7.053444c-0.19046,1.139374 1.621094,4.258636 4.052032,6.951958c3.527466,3.908394 5.028534,4.502335 7.332336,2.993904c1.587433,-1.039452 2.955872,-3.793381 3.087219,-6.140045c0.188843,-3.373844 0.493347,-3.582928 1.286407,-1.014893c1.557983,5.045677 6.89978,8.930992 12.284821,8.930992c4.205597,0 4.594757,-0.44976 2.765686,-3.146149c-2.688538,-3.963425 -2.706421,-5.44931 -0.064331,-4.161026c1.131989,0.551971 2.058197,0.235405 2.058197,-0.710419c0,-0.945808 0.926208,-1.725296 2.058197,-1.725296c1.131958,0 2.058197,1.023209 2.058197,2.283489c0,2.9118 12.025391,11.01778 14.53598,9.793644c1.036133,-0.505257 1.929535,-2.326057 1.929535,-4.05954c0,-1.733505 0.923676,-3.146156 2.122528,-3.146156c1.198822,0 1.6315,-0.913406 0.900452,-2.02977c-0.73111,-1.116383 0.385803,-0.37516 2.508453,1.674553c2.122467,2.049728 4.567841,3.195869 5.40271,2.537216c0.834747,-0.65863 3.528137,-1.448692 6.045929,-1.725304c5.574249,-0.612427 13.892761,-3.849049 13.892761,-5.429626c0,-0.63382 -2.754486,-2.049488 -6.110229,-3.146141c-3.355865,-1.096672 -5.902863,-2.835373 -5.660034,-3.856552c0.245972,-1.034954 -2.370453,-1.939228 -5.852997,-2.02977c-7.200226,-0.187149 -17.67923,-4.044842 -13.764099,-5.074429c1.411987,-0.371346 2.572723,-1.728695 2.572723,-2.993908c0,-2.575142 -10.291473,-3.232887 -13.506897,-0.862648c-3.110992,2.293201 -11.191406,3.793594 -11.191406,2.080509c0,-0.856476 2.344147,-2.007824 5.274109,-2.587948c4.38913,-0.869141 4.883057,-1.498844 2.830017,-3.450615c-2.031616,-1.931343 -1.727142,-2.342884 1.415009,-2.384987c4.584747,-0.061432 12.327789,-4.380829 10.483917,-5.835581c-0.71051,-0.560513 -5.526794,-1.36882 -10.67688,-1.82679c-10.300079,-0.915939 -10.248749,-0.889885 -7.203644,-5.378899c1.97464,-2.910999 2.472992,-2.954674 7.010712,-0.608921c4.582214,2.368774 4.971222,2.288067 6.238861,-0.862656c0.744843,-1.851551 2.229645,-2.947945 3.280273,-2.435719c1.050446,0.512215 1.929565,0.184631 1.929565,-0.761169c0,-0.945816 1.852264,-1.7253 4.116364,-1.7253c2.263977,0 4.116364,-1.039391 4.116364,-2.283497c0,-2.482836 -4.349518,-4.211767 -10.483887,-4.211767c-4.672729,0 -5.301605,-2.980835 -0.900421,-4.313259c1.691467,-0.51211 2.643311,-1.46636 2.122498,-2.131252c-0.520966,-0.664909 1.36319,-2.159557 4.180695,-3.349125c6.936798,-2.928989 5.220734,-5.632624 -3.601868,-5.632624l-7.267975,0l5.209839,-5.378888c4.061798,-4.198936 4.603394,-5.773561 2.637024,-7.307179c-1.959564,-1.528244 -3.95462,-0.694628 -9.261841,3.856579c-6.292938,5.39639 -6.946747,5.603957 -9.133209,2.841675c-1.297455,-1.638974 -3.280396,-2.943165 -4.373688,-2.943165c-2.446869,0 -8.948578,9.08612 -10.355286,14.512856c-1.039917,4.011312 -19.983704,16.815634 -22.833038,15.426245c-0.81189,-0.39587 -1.211884,-4.73081 -0.964783,-9.641396c0.247101,-4.910601 -0.364197,-8.931003 -1.350677,-8.931003c-0.986633,0 -1.509094,-2.697773 -1.157745,-5.987822c0.53302,-4.991514 1.569641,-6.201135 6.367523,-7.205672c4.973358,-1.041281 5.60675,-0.809767 4.566589,1.776038c-1.877502,4.667062 3.142853,5.854589 7.139374,1.674563c2.112793,-2.210011 4.096771,-3.039969 4.888214,-2.02977c1.402527,1.79063 9.583435,0.844079 9.583435,-1.116376c0,-1.509162 -10.245728,-9.07133 -12.027496,-8.880235c-0.757935,0.08128 -2.984314,-0.202848 -4.952545,-0.608938c-5.8078,-1.198215 -2.030304,-3.480885 4.116364,-2.486471c10.317078,1.66921 19.61673,1.357292 20.517609,-0.710413c0.486267,-1.116377 -0.468872,-2.02977 -2.122559,-2.02977c-1.653748,0 -4.132538,-1.105896 -5.531372,-2.435719c-1.398895,-1.329819 -3.370026,-2.011745 -4.373657,-1.522335c-1.003815,0.489445 -1.804199,0.316597 -1.800934,-0.405945c0.003143,-0.722527 2.785126,-2.780766 6.174591,-4.56699c6.231964,-3.284138 7.943604,-5.68335 4.052063,-5.68335c-3.748322,0 -17.22821,4.918327 -19.038269,6.951969c-1.071198,1.203434 -1.277954,0.57885 -0.514526,-1.573078c0.686127,-1.934303 0.359619,-3.945087 -0.707489,-4.4655c-2.240265,-1.092312 -10.548248,9.352852 -10.548248,13.244246c0,1.437449 -0.613678,2.154589 -1.350677,1.573076c-0.737152,-0.581518 -2.636169,0.176273 -4.180725,1.725298c-2.447235,2.454294 -2.653656,1.790194 -1.736542,-5.125162c0.851807,-6.425076 2.785004,-9.560333 10.290924,-16.491882c5.098846,-4.70871 9.326141,-9.613358 9.326141,-10.909992c0,-3.902134 -10.342041,-1.336376 -12.477783,3.095402c-3.398163,7.051525 -7.13797,4.606766 -6.367493,-4.161018c0.562042,-6.397964 -0.168854,-8.814629 -3.601837,-11.721924l-4.309326,-3.602852zm-13.957123,56.98576c0.940643,0.044371 3.177246,1.453575 5.724365,3.704332c4.231781,3.739709 6.17453,7.113731 6.17453,10.808531c0,2.964993 -0.391296,5.429644 -0.83609,5.429644c-1.106903,0 -3.759369,-5.031616 -4.695282,-8.88026c-0.422974,-1.739437 -2.123901,-4.328096 -3.7948,-5.784841c-1.671021,-1.456694 -3.022949,-3.664533 -3.022949,-4.871448c0,-0.301725 0.136688,-0.420717 0.450226,-0.405958zm-5.016846,23.849819c3.916016,0.226595 13.414551,5.397278 14.921906,8.525026c2.681122,5.563709 1.15744,6.601162 -3.473206,2.334232c-2.03067,-1.871111 -4.832306,-3.39986 -6.238892,-3.39986c-2.383209,0 -8.003143,-6.279428 -6.496185,-7.256432c0.290955,-0.188705 0.726868,-0.235346 1.286377,-0.202967zm56.214355,13.244238c0.494934,0.002239 1.096375,0.070915 1.736603,0.202972c3.394806,0.700417 2.598236,1.664818 -5.33847,6.444527c-5.142975,3.097168 -11.163147,5.758503 -13.313904,5.886333c-2.150909,0.127811 -3.8591,0.76852 -3.8591,1.471573c0,0.703043 -1.040497,1.319353 -2.25116,1.319353c-1.210724,0 -1.905457,-1.644411 -1.54364,-3.653589c0.569183,-3.161831 1.745392,-3.604748 8.42569,-3.146141c5.939209,0.407696 7.718262,-0.059734 7.718262,-2.02977c0,-1.408058 1.389221,-2.537205 3.08725,-2.537205c1.697968,0 3.08728,-1.027481 3.08728,-2.283497c0,-1.096508 0.766205,-1.681301 2.25119,-1.674557zm-23.862152,23.240858l4.823853,1.877537c2.652435,1.019455 7.051819,1.40213 9.776459,0.862648c2.805481,-0.555511 4.952545,-0.277466 4.952545,0.659676c0,0.910137 -0.890228,1.674564 -1.929626,1.674564c-1.039551,0 -3.21994,0.377026 -4.823883,0.862659c-1.604034,0.485596 -5.113342,-0.661541 -7.846832,-2.537224l-4.952515,-3.39986zm22.575714,4.008797c0.467133,0.054325 1.155243,0.432316 2.122589,1.065628c2.300598,1.506397 3.08725,1.531139 3.08725,0.101475c0,-1.055157 1.011902,-1.396725 2.31546,-0.761154c1.642181,0.800728 1.212769,1.833153 -1.414978,3.349129c-5.301239,3.058243 -7.075073,2.726437 -7.075073,-1.268616c0,-1.799629 0.186188,-2.577026 0.964752,-2.486462zm31.001556,5.937077c1.764709,0 2.693481,0.73069 1.993866,1.623806c-1.645874,2.101063 -5.145477,2.101063 -5.145477,0c0,-0.893116 1.386719,-1.623806 3.151611,-1.623806zm-48.431824,25.981033c1.132019,0 2.058197,3.65358 2.058197,8.119087c0,8.23262 -0.310547,8.939804 -2.765656,7.002708c-2.191742,-1.729149 -1.562531,-15.121796 0.707458,-15.121796zm-15.693665,21.667809c0.738037,-0.097908 1.286346,0.254784 1.286346,0.964119c0,0.945801 -0.926208,1.725319 -2.058197,1.725319c-2.63739,0 -2.637299,-1.149757 0,-2.435745c0.282898,-0.137978 0.525726,-0.221069 0.771851,-0.253693zm16.594147,3.450584c0.118591,-0.008438 0.309235,0.131119 0.450226,0.405937c0.563782,1.099388 0.586151,3.291527 0.064301,4.871452c-0.52182,1.579933 -0.987122,0.700287 -1.029083,-1.979019c-0.031525,-2.009438 0.158508,-3.27301 0.514557,-3.29837zm-25.598755,0.862663c1.131989,0 2.058228,0.316559 2.058228,0.710419c0,0.393837 -0.926239,1.173325 -2.058228,1.725288c-1.132111,0.551979 -2.058167,0.235413 -2.058167,-0.710403c0,-0.945839 0.926178,-1.725304 2.058167,-1.725304zm-10.290955,3.247612c1.131989,0 2.058197,0.316589 2.058197,0.710403c0,0.393883 -0.926208,1.173355 -2.058197,1.725327c-1.13208,0.551964 -2.058167,0.235397 -2.058167,-0.710403c0,-0.945831 0.926178,-1.725327 2.058167,-1.725327zm-42.836121,0.050758c1.407242,0.109154 3.15451,0.842049 4.502304,2.181992c4.172394,4.14817 11.08905,4.698891 14.92189,1.16713c3.391144,-3.124748 8.228607,-3.165451 5.788666,-0.050735c-0.651367,0.83136 0.231537,1.522293 1.929535,1.522293c1.698059,0 3.674103,-0.730705 4.373688,-1.623802c1.66098,-2.120285 5.145447,-2.13327 5.145447,0c0,0.915192 -2.546936,2.45694 -5.660004,3.399857c-3.113037,0.942947 -10.954102,2.078064 -17.365997,2.537216c-10.213455,0.731415 -11.934692,0.450623 -13.892776,-2.43573c-1.229218,-1.811996 -2.186844,-4.071846 -2.186844,-5.023651c0,-1.235397 1.03688,-1.783722 2.444092,-1.674568zm188.83905,86.011482c1.198792,0 2.186829,0.730713 2.186829,1.623795c0,2.08075 -1.457367,2.08075 -3.087311,0c-0.699677,-0.893082 -0.29834,-1.623795 0.900482,-1.623795zm-172.05191,19.485779c1.259979,0 -1.178558,1.461456 -5.402756,3.247635c-7.475006,3.160812 -11.770294,4.041321 -11.770294,2.435699c0,-1.008026 14.133759,-5.683334 17.17305,-5.683334zm177.711884,69.367371c2.267517,-0.01062 4.522827,0.178009 5.917297,0.608917c2.812073,0.868896 1.428741,1.238617 -4.759552,1.319305c-4.811035,0.062836 -8.747284,-0.164948 -8.747284,-0.507416c0,-0.861481 3.810211,-1.403076 7.589539,-1.420807zm46.052063,8.778748c0.714874,-0.023224 1.57251,0.069885 2.31543,0.304413c1.641907,0.518402 1.111267,0.886292 -1.286346,0.964172c-2.169739,0.070526 -3.385254,-0.323029 -2.701355,-0.862671c0.341949,-0.269745 0.957214,-0.38269 1.672272,-0.405914zm0.514557,40.443146c0.092316,-0.021027 0.244354,0 0.385895,0c1.131958,0 3.447449,0.707336 5.145477,1.57312c1.697906,0.865692 2.161072,1.572968 1.029083,1.572998c-1.132111,0 -3.447418,-0.707275 -5.145447,-1.572998c-1.48587,-0.757599 -2.061615,-1.42572 -1.415009,-1.57312zm-358.511131,65.612335c0.971313,-0.114197 1.248306,0.222992 0.70752,0.913361c-0.691704,0.882874 -2.086494,1.623779 -3.151634,1.623779c-2.960518,0 -2.343597,-1.203918 1.222054,-2.283417c0.457893,-0.138672 0.898331,-0.215668 1.222061,-0.253723zm33.252647,13.95462l4.695221,3.958038l4.630951,3.958099l3.537506,-4.262512c3.218567,-3.875458 3.664017,-3.952057 5.531418,-1.319397c1.5327,2.160828 2.471466,2.337006 3.666122,0.811951c1.132614,-1.445984 1.968124,-1.041351 2.958679,1.420837c1.406555,3.49646 5.274094,4.879761 5.274094,1.877502c0,-0.893127 2.546997,-1.629303 5.660034,-1.62381l5.660019,0l-6.174576,2.587952c-3.979935,1.655579 -9.307724,2.260681 -14.921875,1.776093c-4.790497,-0.413574 -8.201859,-0.071136 -7.5896,0.710419c1.622818,2.071594 -1.448288,1.693756 -7.782516,-0.913422c-3.233032,-1.33075 -5.786911,-1.628052 -6.174576,-0.710419c-0.365952,0.866119 -2.352905,1.068481 -4.373657,0.456696c-3.414917,-1.033875 -3.325089,-1.373627 0.900452,-4.922211l4.502304,-3.805817zm47.852921,1.776062c0.433136,-0.002289 0.850861,0.003876 1.222076,0.101532c1.541489,0.405365 0.596313,1.151093 -2.186844,1.72525c-3.423569,0.706299 -4.228668,0.494568 -2.70137,-0.710419c0.896942,-0.707733 2.366714,-1.109619 3.666138,-1.116364zm-20.903488,66.931671c0.738007,-0.0979 1.286362,0.2547 1.286362,0.964111c0,0.94577 -0.926208,1.725342 -2.058197,1.725342c-2.637283,0 -2.637283,-1.149811 0,-2.435791c0.283051,-0.137939 0.525726,-0.2211 0.771835,-0.253662z"/>
  </g>
 </g>
</svg>